Land_normalized_Motion_pl01
version=1
nRows=10
nColumns=43
inDegrees=yes
endheader
time		pelvis_tilt		pelvis_list		pelvis_rotation		pelvis_tx		pelvis_ty		pelvis_tz		hip_flexion_r		hip_adduction_r		hip_rotation_r		knee_angle_r		ankle_angle_r		subtalar_angle_r		mtp_angle_r		hip_flexion_l		hip_adduction_l		hip_rotation_l		knee_angle_l		ankle_angle_l		subtalar_angle_l		mtp_angle_l		lumbar_extension		lumbar_bending		lumbar_rotation		neck_flexion		neck_lateral_bending		neck_rotation		arm_flex_r		arm_add_r		arm_rot_r		elbow_flex_r		pro_sup_r		wrist_flex_r		wrist_dev_r		hand_finger_flex_r		arm_flex_l		arm_add_l		arm_rot_l		elbow_flex_l		pro_sup_l		wrist_flex_l		wrist_dev_l		hand_finger_flex_l		
4.287500		0.288373		7.176472		97.061533		-0.041732		0.962336		0.587739		25.033127		-6.895280		-8.697485		-35.823184		-17.006346		8.622078		32.519546		25.550606		-4.447004		-6.195284		-39.174170		-16.947651		2.661298		17.512746		-31.740591		7.178830		6.665521		-24.298742		5.178614		-11.463141		-49.473355		-15.724666		-21.162230		35.665711		129.169811		-9.194775		-4.675880		-33.409274		-76.488336		-18.605175		-28.203871		43.093991		152.905164		-1.505000		0.043446		-29.153957		
4.290126		0.219091		7.516424		96.997960		-0.041659		0.952768		0.584093		25.300199		-6.958984		-8.534003		-37.090785		-16.981908		8.788513		32.510450		25.831334		-4.500786		-6.081958		-40.546104		-16.940967		2.744715		17.710060		-32.218486		7.123674		6.608521		-24.004040		4.936277		-11.441839		-48.508810		-15.962153		-21.399843		35.578571		129.032143		-9.334293		-4.567811		-33.438867		-75.484052		-18.397391		-28.087760		43.543381		152.720348		-1.823146		0.045651		-29.213021		
4.292753		0.280194		7.685643		96.989276		-0.041764		0.943047		0.580333		25.698991		-6.958667		-8.529962		-38.256954		-17.073869		8.916251		32.502009		25.898325		-4.635452		-6.054662		-41.000913		-16.978538		2.859916		17.891797		-32.447513		7.230171		6.672152		-23.870673		4.948549		-11.454651		-47.809572		-16.207742		-21.525049		35.693219		128.932407		-9.509787		-4.598517		-33.482019		-74.427518		-18.301013		-27.936739		44.034440		152.523842		-2.208604		-0.004694		-29.308690		
4.295379		0.200702		7.598212		96.654525		-0.041211		0.932022		0.577675		26.865335		-6.960854		-8.139197		-39.932470		-16.554852		10.158783		32.437033		27.110069		-4.805078		-6.058263		-43.108411		-17.168821		3.693740		19.254627		-32.774248		6.910093		6.862315		-21.993309		4.906408		-11.567553		-46.625957		-16.264322		-21.974685		35.418824		128.257105		-10.560609		-4.791116		-33.741908		-73.148109		-18.049669		-27.531901		43.856761		151.155893		-4.511203		0.279901		-29.850996		
4.298005		0.181554		7.913643		96.539568		-0.041337		0.922273		0.573983		27.165732		-6.989690		-8.017083		-41.064933		-16.798176		10.291215		32.428741		27.325751		-4.897245		-5.937920		-44.130451		-17.347797		3.776011		19.429716		-33.179864		6.907114		6.811428		-21.904396		4.629153		-11.534838		-45.640100		-16.656948		-22.225647		35.355459		128.100958		-10.697533		-4.685546		-33.761691		-72.162956		-17.872773		-27.299048		44.381273		150.984043		-4.771997		0.226348		-29.892813		
4.300631		0.170446		8.116788		96.466276		-0.040968		0.911922		0.570389		27.711944		-6.944159		-7.818014		-42.357902		-16.914508		10.844551		32.409262		27.761578		-5.040736		-5.869959		-45.216307		-17.724872		4.054571		19.845117		-33.543013		6.859244		6.734878		-21.075457		4.219302		-11.472419		-44.492777		-16.791986		-22.574496		35.150961		127.768975		-11.071187		-4.534298		-33.844282		-71.097788		-17.637020		-27.132169		44.714944		150.551565		-5.500426		0.378460		-30.060514		
4.303258		0.163253		8.194573		96.413679		-0.040759		0.901761		0.567164		28.330686		-6.951763		-7.716868		-43.429164		-16.842921		11.446182		32.388893		28.189457		-5.143638		-5.841745		-45.914324		-17.970668		4.363077		20.306799		-33.836036		6.805669		6.740801		-20.366179		4.075271		-11.461862		-43.447748		-16.946450		-22.841241		35.188886		127.456326		-11.524180		-4.511246		-33.952322		-69.863578		-17.474766		-26.926064		45.074833		150.102839		-6.321359		0.505412		-30.260800		
4.305884		0.121017		8.241383		96.298335		-0.040943		0.891332		0.563661		28.987958		-7.069665		-7.674964		-44.542417		-16.531486		12.150651		32.368837		28.582241		-5.181322		-5.831424		-46.605338		-17.702026		4.837037		21.029431		-33.991026		6.757690		6.838320		-20.046220		4.092186		-11.475655		-42.635834		-17.208711		-22.940018		35.271986		127.094646		-12.055767		-4.640420		-34.058322		-68.653538		-17.440659		-26.484545		45.328481		149.585898		-7.279871		0.526449		-30.459949		
4.308510		-0.034505		8.134023		96.087711		-0.040767		0.880455		0.560664		29.984448		-7.206508		-7.414286		-45.863243		-15.349891		13.531912		32.330081		29.451463		-5.132163		-5.754359		-47.983545		-16.838574		5.717338		22.547791		-34.148900		6.496443		6.843927		-19.082169		3.895786		-11.487068		-41.431158		-17.393042		-23.143849		35.066010		126.308301		-13.035719		-4.757784		-34.233409		-67.294950		-17.382623		-25.765780		45.231764		148.534620		-9.045460		0.710392		-30.777813		
4.311136		-0.087253		8.291980		96.064903		-0.040485		0.870207		0.557412		30.486149		-7.216230		-7.180558		-47.030159		-13.842216		13.935704		32.325352		29.832946		-5.090364		-5.500994		-49.026515		-15.437919		6.008681		23.265151		-34.501274		6.418841		6.660207		-18.501257		3.606161		-11.461706		-40.152039		-17.633539		-23.383934		34.972304		125.914879		-13.382528		-4.630735		-34.272271		-66.078926		-17.228012		-25.526940		45.571770		148.159355		-9.588112		0.761170		-30.801802		
